M48
INCH,TZ
T1C0.0394
T2C0.0472
T3C0.0669
T4C0.0748
T5C0.1575
%
G90
G05
T1
X9.4197Y-4.6433
X9.8307Y-4.6433
X5.6701Y-4.1783
X6.0811Y-4.1783
X5.6693Y-2.678
X6.0803Y-2.678
X6.4195Y-1.8307
X6.8305Y-1.8307
X9.4201Y-1.6433
X9.8311Y-1.6433
X8.6701Y-4.5531
X9.0811Y-4.5531
X8.6693Y-3.0535
X9.0803Y-3.0535
X4.9201Y-3.2185
X5.3311Y-3.2185
X6.4201Y-2.5811
X6.8311Y-2.5811
X9.4193Y-3.1441
X9.8303Y-3.1441
X7.1705Y-1.5531
X7.5815Y-1.5531
X9.4201Y-3.8937
X9.8311Y-3.8937
X7.1701Y-3.0535
X7.5811Y-3.0535
X8.6695Y-1.5531
X9.0805Y-1.5531
X7.9193Y-2.8654
X8.3303Y-2.8654
X8.6701Y-3.8035
X9.0811Y-3.8035
X9.4201Y-2.3933
X9.8311Y-2.3933
X10.1701Y-4.7189
X10.5811Y-4.7189
X6.4197Y-3.3307
X6.8307Y-3.3307
X7.9189Y-3.6157
X8.3299Y-3.6157
X8.6705Y-2.3031
X9.0815Y-2.3031
X7.1693Y-3.8031
X7.5803Y-3.8031
X7.9197Y-2.1165
X8.3307Y-2.1165
X7.9195Y-1.3652
X8.3305Y-1.3652
X5.6695Y-1.9281
X6.0805Y-1.9281
X6.4197Y-4.0811
X6.8307Y-4.0811
X7.1697Y-2.3035
X7.5807Y-2.3035
X5.6697Y-3.4283
X6.0807Y-3.4283
T2
X9.25Y-1.1142
X9.25Y-1.3898
T3
X7.9244Y-3.4504
X8.3244Y-3.4504
X8.676Y-2.1378
X9.076Y-2.1378
X7.1748Y-3.6378
X7.5748Y-3.6378
X7.9252Y-1.9512
X8.3252Y-1.9512
X7.925Y-1.1998
X8.325Y-1.1998
X5.675Y-1.7628
X6.075Y-1.7628
X6.4252Y-3.9157
X6.8252Y-3.9157
X7.1752Y-2.1382
X7.5752Y-2.1382
X5.6752Y-3.263
X6.0752Y-3.263
X9.4252Y-4.478
X9.8252Y-4.478
X5.6756Y-4.013
X6.0756Y-4.013
X5.6748Y-2.5126
X6.0748Y-2.5126
X6.425Y-1.6654
X6.825Y-1.6654
X9.4256Y-1.478
X9.8256Y-1.478
X8.6756Y-4.3878
X9.0756Y-4.3878
X8.6748Y-2.8882
X9.0748Y-2.8882
X4.9256Y-3.0531
X5.3256Y-3.0531
X6.4256Y-2.4157
X6.8256Y-2.4157
X9.4248Y-2.9787
X9.8248Y-2.9787
X7.176Y-1.3878
X7.576Y-1.3878
X9.4256Y-3.7283
X9.8256Y-3.7283
X7.1756Y-2.8882
X7.5756Y-2.8882
X8.675Y-1.3878
X9.075Y-1.3878
X7.9248Y-2.7
X8.3248Y-2.7
X8.6756Y-3.6382
X9.0756Y-3.6382
X9.4256Y-2.228
X9.8256Y-2.228
X10.1756Y-4.5535
X10.5756Y-4.5535
X6.4252Y-3.1654
X6.8252Y-3.1654
T4
X9.4091Y-3.7283
X9.8421Y-3.7283
X7.1591Y-2.8882
X7.5921Y-2.8882
X8.6585Y-1.3878
X9.0915Y-1.3878
X7.9083Y-2.7
X8.3413Y-2.7
X8.6591Y-3.6382
X9.0921Y-3.6382
X9.4091Y-2.228
X9.8421Y-2.228
X10.1591Y-4.5535
X10.5921Y-4.5535
X6.4087Y-3.1654
X6.8417Y-3.1654
X7.9079Y-3.4504
X8.3409Y-3.4504
X8.6594Y-2.1378
X9.0925Y-2.1378
X7.1583Y-3.6378
X7.5913Y-3.6378
X7.9087Y-1.9512
X8.3417Y-1.9512
X7.9085Y-1.1998
X8.3415Y-1.1998
X5.6585Y-1.7628
X6.0915Y-1.7628
X6.4087Y-3.9157
X6.8417Y-3.9157
X7.1587Y-2.1382
X7.5917Y-2.1382
X5.6587Y-3.263
X6.0917Y-3.263
X9.4087Y-4.478
X9.8417Y-4.478
X5.6591Y-4.013
X6.0921Y-4.013
X5.6583Y-2.5126
X6.0913Y-2.5126
X6.4085Y-1.6654
X6.8415Y-1.6654
X9.4091Y-1.478
X9.8421Y-1.478
X8.6591Y-4.3878
X9.0921Y-4.3878
X8.6583Y-2.8882
X9.0913Y-2.8882
X4.9091Y-3.0531
X5.3421Y-3.0531
X6.4091Y-2.4157
X6.8421Y-2.4157
X9.4083Y-2.9787
X9.8413Y-2.9787
X7.1594Y-1.3878
X7.5925Y-1.3878
T5
X9.6256Y-3.7283
X7.3756Y-2.8882
X8.875Y-1.3878
X8.1248Y-2.7
X8.8756Y-3.6382
X9.6256Y-2.228
X10.3756Y-4.5535
X6.6252Y-3.1654
X8.1244Y-3.4504
X8.876Y-2.1378
X7.3748Y-3.6378
X8.1252Y-1.9512
X8.125Y-1.1998
X5.875Y-1.7628
X6.6252Y-3.9157
X7.3752Y-2.1382
X5.8752Y-3.263
X9.6252Y-4.478
X5.8756Y-4.013
X5.8748Y-2.5126
X6.625Y-1.6654
X9.6256Y-1.478
X8.8756Y-4.3878
X8.8748Y-2.8882
X5.1256Y-3.0531
X6.6256Y-2.4157
X9.6248Y-2.9787
X7.376Y-1.3878
T0
M30
