G04 #@! TF.GenerationSoftware,KiCad,Pcbnew,(5.0.2)-1*
G04 #@! TF.CreationDate,2019-03-25T20:18:58+08:00*
G04 #@! TF.ProjectId,JiranSecondTry,4a697261-6e53-4656-936f-6e645472792e,rev?*
G04 #@! TF.SameCoordinates,Original*
G04 #@! TF.FileFunction,Profile,NP*
%FSLAX46Y46*%
G04 Gerber Fmt 4.6, Leading zero omitted, Abs format (unit mm)*
G04 Created by KiCad (PCBNEW (5.0.2)-1) date 25/03/2019 20:18:58*
%MOMM*%
%LPD*%
G01*
G04 APERTURE LIST*
%ADD10C,0.150000*%
G04 APERTURE END LIST*
D10*
X253600000Y-29350000D02*
X253600000Y-105600000D01*
X254550000Y-106550000D02*
X271700000Y-106550000D01*
X254550000Y-106550000D02*
G75*
G02X253600000Y-105600000I0J950000D01*
G01*
X272650000Y-107500000D02*
X272650000Y-123850000D01*
X271700000Y-106550000D02*
G75*
G02X272650000Y-107500000I0J-950000D01*
G01*
X271700000Y-124800000D02*
X255350000Y-124800000D01*
X272650000Y-123850000D02*
G75*
G02X271700000Y-124800000I-950000J0D01*
G01*
X254400000Y-123800000D02*
X254400000Y-123850000D01*
X255350000Y-124800000D02*
G75*
G02X254400000Y-123850000I0J950000D01*
G01*
X253450000Y-122850000D02*
X236300000Y-122850000D01*
X253450000Y-122850000D02*
G75*
G02X254400000Y-123800000I0J-950000D01*
G01*
X235350000Y-121550000D02*
X235350000Y-121900000D01*
X236300000Y-122850000D02*
G75*
G02X235350000Y-121900000I0J950000D01*
G01*
X234400000Y-120600000D02*
X217250000Y-120600000D01*
X234400000Y-120600000D02*
G75*
G02X235350000Y-121550000I0J-950000D01*
G01*
X216300000Y-119650000D02*
X216300000Y-97700000D01*
X217250000Y-120600000D02*
G75*
G02X216300000Y-119650000I0J950000D01*
G01*
X215350000Y-96750000D02*
X197400000Y-96750000D01*
X215350000Y-96750000D02*
G75*
G02X216300000Y-97700000I0J-950000D01*
G01*
X196450000Y-100600000D02*
X196450000Y-97700000D01*
X196450000Y-97700000D02*
G75*
G02X197400000Y-96750000I950000J0D01*
G01*
X195500000Y-101550000D02*
X178350000Y-101550000D01*
X196450000Y-100600000D02*
G75*
G02X195500000Y-101550000I-950000J0D01*
G01*
X177400000Y-102500000D02*
X177400000Y-107650000D01*
X177400000Y-102500000D02*
G75*
G02X178350000Y-101550000I950000J0D01*
G01*
X159300000Y-108600000D02*
X176450000Y-108600000D01*
X177400000Y-107650000D02*
G75*
G02X176450000Y-108600000I-950000J0D01*
G01*
X158350000Y-109550000D02*
X158350000Y-110100000D01*
X158350000Y-109550000D02*
G75*
G02X159300000Y-108600000I950000J0D01*
G01*
X157400000Y-111050000D02*
X141050000Y-111050000D01*
X158350000Y-110100000D02*
G75*
G02X157400000Y-111050000I-950000J0D01*
G01*
X140100000Y-110100000D02*
X140100000Y-87650000D01*
X141050000Y-111050000D02*
G75*
G02X140100000Y-110100000I0J950000D01*
G01*
X139150000Y-86700000D02*
X122000000Y-86700000D01*
X139150000Y-86700000D02*
G75*
G02X140100000Y-87650000I0J-950000D01*
G01*
X121050000Y-85750000D02*
X121050000Y-69350000D01*
X122000000Y-86700000D02*
G75*
G02X121050000Y-85750000I0J950000D01*
G01*
X122000000Y-68400000D02*
X139150000Y-68400000D01*
X121050000Y-69350000D02*
G75*
G02X122000000Y-68400000I950000J0D01*
G01*
X140100000Y-67450000D02*
X140100000Y-36600000D01*
X140100000Y-67450000D02*
G75*
G02X139150000Y-68400000I-950000J0D01*
G01*
X158200000Y-35650000D02*
X141050000Y-35650000D01*
X140100000Y-36600000D02*
G75*
G02X141050000Y-35650000I950000J0D01*
G01*
X159150000Y-34100000D02*
X159150000Y-34700000D01*
X159150000Y-34700000D02*
G75*
G02X158200000Y-35650000I-950000J0D01*
G01*
X160100000Y-33150000D02*
X177250000Y-33150000D01*
X159150000Y-34100000D02*
G75*
G02X160100000Y-33150000I950000J0D01*
G01*
X178200000Y-27050000D02*
X178200000Y-32200000D01*
X178200000Y-32200000D02*
G75*
G02X177250000Y-33150000I-950000J0D01*
G01*
X179150000Y-26100000D02*
X196300000Y-26100000D01*
X178200000Y-27050000D02*
G75*
G02X179150000Y-26100000I950000J0D01*
G01*
X197250000Y-22300000D02*
X197250000Y-25150000D01*
X197250000Y-25150000D02*
G75*
G02X196300000Y-26100000I-950000J0D01*
G01*
X198200000Y-21350000D02*
X214550000Y-21350000D01*
X197250000Y-22300000D02*
G75*
G02X198200000Y-21350000I950000J0D01*
G01*
X215500000Y-25150000D02*
X215500000Y-22300000D01*
X214550000Y-21350000D02*
G75*
G02X215500000Y-22300000I0J-950000D01*
G01*
X233600000Y-26100000D02*
X216450000Y-26100000D01*
X216450000Y-26100000D02*
G75*
G02X215500000Y-25150000I0J950000D01*
G01*
X234550000Y-27450000D02*
X234550000Y-27050000D01*
X233600000Y-26100000D02*
G75*
G02X234550000Y-27050000I0J-950000D01*
G01*
X235500000Y-28400000D02*
X252650000Y-28400000D01*
X235500000Y-28400000D02*
G75*
G02X234550000Y-27450000I0J950000D01*
G01*
X252650000Y-28400000D02*
G75*
G02X253600000Y-29350000I0J-950000D01*
G01*
X265300000Y-119080000D02*
X261820000Y-119080000D01*
X265300000Y-123560000D02*
X265300000Y-119080000D01*
X261810000Y-123560000D02*
X265300000Y-123560000D01*
X261810000Y-119080000D02*
X261810000Y-123560000D01*
X246240000Y-117180000D02*
X242740000Y-117180000D01*
X246240000Y-121670000D02*
X246240000Y-117180000D01*
X242740000Y-121670000D02*
X246240000Y-121670000D01*
X242740000Y-117180000D02*
X242740000Y-121670000D01*
X227170000Y-114880000D02*
X223670000Y-114880000D01*
X227170000Y-119360000D02*
X227170000Y-114880000D01*
X223670000Y-119360000D02*
X227170000Y-119360000D01*
X223670000Y-114880000D02*
X223670000Y-119360000D01*
X246250000Y-98110000D02*
X242750000Y-98110000D01*
X246250000Y-102590000D02*
X246250000Y-98110000D01*
X242750000Y-102590000D02*
X246250000Y-102590000D01*
X242750000Y-98110000D02*
X242750000Y-102590000D01*
X227170000Y-95830000D02*
X223680000Y-95830000D01*
X227170000Y-100330000D02*
X227170000Y-95830000D01*
X223680000Y-100330000D02*
X227170000Y-100330000D01*
X223680000Y-95830000D02*
X223680000Y-100330000D01*
X208120000Y-91060000D02*
X204640000Y-91060000D01*
X208120000Y-95550000D02*
X208120000Y-91060000D01*
X204630000Y-95550000D02*
X208120000Y-95550000D01*
X204630000Y-91060000D02*
X204630000Y-95550000D01*
X189090000Y-95830000D02*
X185610000Y-95830000D01*
X189090000Y-100320000D02*
X189090000Y-95830000D01*
X185610000Y-100320000D02*
X189090000Y-100320000D01*
X185610000Y-95830000D02*
X185610000Y-100320000D01*
X170020000Y-102890000D02*
X166530000Y-102890000D01*
X170020000Y-107360000D02*
X170020000Y-102890000D01*
X166520000Y-107360000D02*
X170020000Y-107360000D01*
X166530000Y-102890000D02*
X166520000Y-107360000D01*
X150980000Y-105350000D02*
X147480000Y-105350000D01*
X150970000Y-109850000D02*
X150980000Y-105350000D01*
X147480000Y-109850000D02*
X150970000Y-109850000D01*
X147480000Y-105350000D02*
X147480000Y-109850000D01*
X246250000Y-79080000D02*
X242750000Y-79080000D01*
X246250000Y-83570000D02*
X246250000Y-79080000D01*
X242750000Y-83570000D02*
X246250000Y-83570000D01*
X242750000Y-79080000D02*
X242750000Y-83570000D01*
X227180000Y-76780000D02*
X223670000Y-76780000D01*
X227180000Y-81280000D02*
X227180000Y-76780000D01*
X223670000Y-81280000D02*
X227180000Y-81280000D01*
X223670000Y-76780000D02*
X223670000Y-81280000D01*
X208120000Y-72000000D02*
X204630000Y-72000000D01*
X208120000Y-76500000D02*
X208120000Y-72000000D01*
X204630000Y-76500000D02*
X208120000Y-76500000D01*
X204630000Y-72000000D02*
X204630000Y-76500000D01*
X189100000Y-76780000D02*
X185600000Y-76780000D01*
X189100000Y-81270000D02*
X189100000Y-76780000D01*
X185600000Y-81270000D02*
X189100000Y-81270000D01*
X185600000Y-76780000D02*
X185600000Y-81270000D01*
X170020000Y-83830000D02*
X166530000Y-83830000D01*
X170020000Y-88310000D02*
X170020000Y-83830000D01*
X166530000Y-88310000D02*
X170020000Y-88310000D01*
X166530000Y-83830000D02*
X166530000Y-88310000D01*
X150970000Y-86300000D02*
X147480000Y-86300000D01*
X150970000Y-90800000D02*
X150970000Y-86300000D01*
X147480000Y-90800000D02*
X150970000Y-90800000D01*
X147480000Y-86300000D02*
X147480000Y-90800000D01*
X246330000Y-60010000D02*
X242830000Y-60010000D01*
X246330000Y-64480000D02*
X246330000Y-60010000D01*
X242830000Y-64480000D02*
X246330000Y-64480000D01*
X242830000Y-60010000D02*
X242830000Y-64480000D01*
X227170000Y-57760000D02*
X223670000Y-57760000D01*
X227170000Y-62240000D02*
X227170000Y-57760000D01*
X223670000Y-62240000D02*
X227170000Y-62240000D01*
X223670000Y-57760000D02*
X223670000Y-62240000D01*
X208120000Y-52980000D02*
X204630000Y-52980000D01*
X208120000Y-57470000D02*
X208120000Y-52980000D01*
X204630000Y-57470000D02*
X208120000Y-57470000D01*
X204630000Y-52980000D02*
X204630000Y-57470000D01*
X189100000Y-57720000D02*
X185600000Y-57720000D01*
X189100000Y-62220000D02*
X189100000Y-57720000D01*
X185600000Y-62220000D02*
X189100000Y-62220000D01*
X185600000Y-57720000D02*
X185600000Y-62220000D01*
X170020000Y-64770000D02*
X166530000Y-64770000D01*
X170020000Y-69270000D02*
X170020000Y-64770000D01*
X166530000Y-69270000D02*
X170020000Y-69270000D01*
X166530000Y-64770000D02*
X166530000Y-69270000D01*
X131920000Y-80990000D02*
X128430000Y-80990000D01*
X131920000Y-85460000D02*
X131920000Y-80990000D01*
X128430000Y-85460000D02*
X131920000Y-85460000D01*
X128430000Y-80990000D02*
X128430000Y-85460000D01*
X150970000Y-67250000D02*
X147480000Y-67250000D01*
X150980000Y-71740000D02*
X150970000Y-67250000D01*
X147480000Y-71740000D02*
X150980000Y-71740000D01*
X147470000Y-67250000D02*
X147480000Y-71740000D01*
X246250000Y-40950000D02*
X242760000Y-40950000D01*
X246250000Y-45440000D02*
X246250000Y-40950000D01*
X242760000Y-45440000D02*
X246250000Y-45440000D01*
X242760000Y-40960000D02*
X242760000Y-45440000D01*
X227180000Y-38670000D02*
X223670000Y-38670000D01*
X227180000Y-43170000D02*
X227180000Y-38670000D01*
X223670000Y-43170000D02*
X227180000Y-43170000D01*
X223670000Y-38670000D02*
X223670000Y-43170000D01*
X208120000Y-33900000D02*
X204630000Y-33900000D01*
X208120000Y-38390000D02*
X208120000Y-33900000D01*
X204630000Y-38390000D02*
X208120000Y-38390000D01*
X204630000Y-33900000D02*
X204630000Y-38390000D01*
X189100000Y-38680000D02*
X185600000Y-38680000D01*
X189100000Y-43170000D02*
X189100000Y-38680000D01*
X185600000Y-43170000D02*
X189100000Y-43170000D01*
X185600000Y-38680000D02*
X185600000Y-43170000D01*
X170020000Y-45730000D02*
X166530000Y-45730000D01*
X170020000Y-50220000D02*
X170020000Y-45730000D01*
X166530000Y-50220000D02*
X170020000Y-50220000D01*
X166530000Y-45730000D02*
X166530000Y-50220000D01*
X150970000Y-48200000D02*
X147480000Y-48200000D01*
X150970000Y-52690000D02*
X150970000Y-48200000D01*
X147480000Y-52690000D02*
X150970000Y-52690000D01*
X147480000Y-48200000D02*
X147480000Y-52690000D01*
X143300000Y-73340000D02*
G75*
G03X143300000Y-73340000I-2600000J0D01*
G01*
X160320000Y-92390000D02*
G75*
G03X160320000Y-92390000I-2600000J0D01*
G01*
X198290000Y-44770000D02*
G75*
G03X198290000Y-44770000I-2600000J0D01*
G01*
X238430000Y-104190000D02*
G75*
G03X238430000Y-104190000I-2600000J0D01*
G01*
X237540000Y-45910000D02*
G75*
G03X237540000Y-45910000I-2600000J0D01*
G01*
M02*
