G04 #@! TF.GenerationSoftware,KiCad,Pcbnew,(5.0.2)-1*
G04 #@! TF.CreationDate,2019-03-25T20:18:58+08:00*
G04 #@! TF.ProjectId,JiranSecondTry,4a697261-6e53-4656-936f-6e645472792e,rev?*
G04 #@! TF.SameCoordinates,Original*
G04 #@! TF.FileFunction,Legend,Top*
G04 #@! TF.FilePolarity,Positive*
%FSLAX46Y46*%
G04 Gerber Fmt 4.6, Leading zero omitted, Abs format (unit mm)*
G04 Created by KiCad (PCBNEW (5.0.2)-1) date 25/03/2019 20:18:58*
%MOMM*%
%LPD*%
G01*
G04 APERTURE LIST*
%ADD10C,0.300000*%
%ADD11C,0.150000*%
G04 APERTURE END LIST*
D10*
G04 #@! TO.C,L1*
X150605000Y-50600000D02*
X152655000Y-50600000D01*
X150605000Y-52050000D02*
X150605000Y-50600000D01*
X152655000Y-52050000D02*
X150605000Y-52050000D01*
X152655000Y-50600000D02*
X152655000Y-52050000D01*
G04 #@! TO.C,L2*
X171705000Y-48125000D02*
X171705000Y-49575000D01*
X171705000Y-49575000D02*
X169655000Y-49575000D01*
X169655000Y-49575000D02*
X169655000Y-48125000D01*
X169655000Y-48125000D02*
X171705000Y-48125000D01*
G04 #@! TO.C,L3*
X188730000Y-41075000D02*
X190780000Y-41075000D01*
X188730000Y-42525000D02*
X188730000Y-41075000D01*
X190780000Y-42525000D02*
X188730000Y-42525000D01*
X190780000Y-41075000D02*
X190780000Y-42525000D01*
G04 #@! TO.C,L4*
X209805000Y-36300000D02*
X209805000Y-37750000D01*
X209805000Y-37750000D02*
X207755000Y-37750000D01*
X207755000Y-37750000D02*
X207755000Y-36300000D01*
X207755000Y-36300000D02*
X209805000Y-36300000D01*
G04 #@! TO.C,L5*
X228855000Y-41075000D02*
X228855000Y-42525000D01*
X228855000Y-42525000D02*
X226805000Y-42525000D01*
X226805000Y-42525000D02*
X226805000Y-41075000D01*
X226805000Y-41075000D02*
X228855000Y-41075000D01*
G04 #@! TO.C,L6*
X245880000Y-43350000D02*
X247930000Y-43350000D01*
X245880000Y-44800000D02*
X245880000Y-43350000D01*
X247930000Y-44800000D02*
X245880000Y-44800000D01*
X247930000Y-43350000D02*
X247930000Y-44800000D01*
G04 #@! TO.C,L7*
X152655000Y-69650000D02*
X152655000Y-71100000D01*
X152655000Y-71100000D02*
X150605000Y-71100000D01*
X150605000Y-71100000D02*
X150605000Y-69650000D01*
X150605000Y-69650000D02*
X152655000Y-69650000D01*
G04 #@! TO.C,L8*
X169655000Y-67175000D02*
X171705000Y-67175000D01*
X169655000Y-68625000D02*
X169655000Y-67175000D01*
X171705000Y-68625000D02*
X169655000Y-68625000D01*
X171705000Y-67175000D02*
X171705000Y-68625000D01*
G04 #@! TO.C,L9*
X190780000Y-60125000D02*
X190780000Y-61575000D01*
X190780000Y-61575000D02*
X188730000Y-61575000D01*
X188730000Y-61575000D02*
X188730000Y-60125000D01*
X188730000Y-60125000D02*
X190780000Y-60125000D01*
G04 #@! TO.C,L10*
X207755000Y-55375000D02*
X209805000Y-55375000D01*
X207755000Y-56825000D02*
X207755000Y-55375000D01*
X209805000Y-56825000D02*
X207755000Y-56825000D01*
X209805000Y-55375000D02*
X209805000Y-56825000D01*
G04 #@! TO.C,L11*
X228855000Y-60150000D02*
X228855000Y-61600000D01*
X228855000Y-61600000D02*
X226805000Y-61600000D01*
X226805000Y-61600000D02*
X226805000Y-60150000D01*
X226805000Y-60150000D02*
X228855000Y-60150000D01*
G04 #@! TO.C,L12*
X245960000Y-62390000D02*
X248010000Y-62390000D01*
X245960000Y-63840000D02*
X245960000Y-62390000D01*
X248010000Y-63840000D02*
X245960000Y-63840000D01*
X248010000Y-62390000D02*
X248010000Y-63840000D01*
G04 #@! TO.C,L13*
X150605000Y-88700000D02*
X152655000Y-88700000D01*
X150605000Y-90150000D02*
X150605000Y-88700000D01*
X152655000Y-90150000D02*
X150605000Y-90150000D01*
X152655000Y-88700000D02*
X152655000Y-90150000D01*
G04 #@! TO.C,L14*
X171705000Y-86225000D02*
X171705000Y-87675000D01*
X171705000Y-87675000D02*
X169655000Y-87675000D01*
X169655000Y-87675000D02*
X169655000Y-86225000D01*
X169655000Y-86225000D02*
X171705000Y-86225000D01*
G04 #@! TO.C,L15*
X188730000Y-79175000D02*
X190780000Y-79175000D01*
X188730000Y-80625000D02*
X188730000Y-79175000D01*
X190780000Y-80625000D02*
X188730000Y-80625000D01*
X190780000Y-79175000D02*
X190780000Y-80625000D01*
G04 #@! TO.C,L16*
X209805000Y-74400000D02*
X209805000Y-75850000D01*
X209805000Y-75850000D02*
X207755000Y-75850000D01*
X207755000Y-75850000D02*
X207755000Y-74400000D01*
X207755000Y-74400000D02*
X209805000Y-74400000D01*
G04 #@! TO.C,L17*
X226805000Y-79175000D02*
X228855000Y-79175000D01*
X226805000Y-80625000D02*
X226805000Y-79175000D01*
X228855000Y-80625000D02*
X226805000Y-80625000D01*
X228855000Y-79175000D02*
X228855000Y-80625000D01*
G04 #@! TO.C,L18*
X247930000Y-81475000D02*
X247930000Y-82925000D01*
X247930000Y-82925000D02*
X245880000Y-82925000D01*
X245880000Y-82925000D02*
X245880000Y-81475000D01*
X245880000Y-81475000D02*
X247930000Y-81475000D01*
G04 #@! TO.C,L19*
X150605000Y-107750000D02*
X152655000Y-107750000D01*
X150605000Y-109200000D02*
X150605000Y-107750000D01*
X152655000Y-109200000D02*
X150605000Y-109200000D01*
X152655000Y-107750000D02*
X152655000Y-109200000D01*
G04 #@! TO.C,L20*
X171705000Y-105275000D02*
X171705000Y-106725000D01*
X171705000Y-106725000D02*
X169655000Y-106725000D01*
X169655000Y-106725000D02*
X169655000Y-105275000D01*
X169655000Y-105275000D02*
X171705000Y-105275000D01*
G04 #@! TO.C,L21*
X188730000Y-98225000D02*
X190780000Y-98225000D01*
X188730000Y-99675000D02*
X188730000Y-98225000D01*
X190780000Y-99675000D02*
X188730000Y-99675000D01*
X190780000Y-98225000D02*
X190780000Y-99675000D01*
G04 #@! TO.C,L22*
X209805000Y-93450000D02*
X209805000Y-94900000D01*
X209805000Y-94900000D02*
X207755000Y-94900000D01*
X207755000Y-94900000D02*
X207755000Y-93450000D01*
X207755000Y-93450000D02*
X209805000Y-93450000D01*
G04 #@! TO.C,L23*
X226805000Y-98225000D02*
X228855000Y-98225000D01*
X226805000Y-99675000D02*
X226805000Y-98225000D01*
X228855000Y-99675000D02*
X226805000Y-99675000D01*
X228855000Y-98225000D02*
X228855000Y-99675000D01*
G04 #@! TO.C,L24*
X247930000Y-100500000D02*
X247930000Y-101950000D01*
X247930000Y-101950000D02*
X245880000Y-101950000D01*
X245880000Y-101950000D02*
X245880000Y-100500000D01*
X245880000Y-100500000D02*
X247930000Y-100500000D01*
G04 #@! TO.C,L25*
X131555000Y-83375000D02*
X133605000Y-83375000D01*
X131555000Y-84825000D02*
X131555000Y-83375000D01*
X133605000Y-84825000D02*
X131555000Y-84825000D01*
X133605000Y-83375000D02*
X133605000Y-84825000D01*
G04 #@! TO.C,L26*
X226805000Y-117275000D02*
X228855000Y-117275000D01*
X226805000Y-118725000D02*
X226805000Y-117275000D01*
X228855000Y-118725000D02*
X226805000Y-118725000D01*
X228855000Y-117275000D02*
X228855000Y-118725000D01*
G04 #@! TO.C,L27*
X247930000Y-119575000D02*
X247930000Y-121025000D01*
X247930000Y-121025000D02*
X245880000Y-121025000D01*
X245880000Y-121025000D02*
X245880000Y-119575000D01*
X245880000Y-119575000D02*
X247930000Y-119575000D01*
G04 #@! TO.C,L28*
X264930000Y-121475000D02*
X266980000Y-121475000D01*
X264930000Y-122925000D02*
X264930000Y-121475000D01*
X266980000Y-122925000D02*
X264930000Y-122925000D01*
X266980000Y-121475000D02*
X266980000Y-122925000D01*
D11*
G04 #@! TO.C,JP3*
X232407000Y-42239000D02*
X232407000Y-40461000D01*
X234693000Y-42239000D02*
X232407000Y-42239000D01*
X234693000Y-40461000D02*
X234693000Y-42239000D01*
X232407000Y-40461000D02*
X234693000Y-40461000D01*
G04 #@! TO.C,JP4*
X235207000Y-40461000D02*
X237493000Y-40461000D01*
X237493000Y-40461000D02*
X237493000Y-42239000D01*
X237493000Y-42239000D02*
X235207000Y-42239000D01*
X235207000Y-42239000D02*
X235207000Y-40461000D01*
G04 #@! TO.C,U1*
G04 #@! TO.C,J2*
X143172380Y-51043333D02*
X143886666Y-51043333D01*
X144029523Y-51090952D01*
X144124761Y-51186190D01*
X144172380Y-51329047D01*
X144172380Y-51424285D01*
X143267619Y-50614761D02*
X143220000Y-50567142D01*
X143172380Y-50471904D01*
X143172380Y-50233809D01*
X143220000Y-50138571D01*
X143267619Y-50090952D01*
X143362857Y-50043333D01*
X143458095Y-50043333D01*
X143600952Y-50090952D01*
X144172380Y-50662380D01*
X144172380Y-50043333D01*
G04 #@! TD*
M02*
