M48
INCH,TZ
T1C0.0157
T2C0.0320
T3C0.0394
T4C0.0472
T5C0.0512
T6C0.0591
%
G90
G05
T1
X4.958Y-3.2985
X5.0347Y-3.3877
X5.2705Y-3.2771
X5.3665Y-3.2525
X5.6201Y-1.8366
X5.6625Y-2.0621
X5.6661Y-2.7826
X5.6791Y-1.9907
X5.7067Y-3.4532
X5.7135Y-2.7201
X5.7233Y-2.0207
X5.7249Y-3.492
X5.745Y-2.5828
X5.7559Y-4.1573
X5.7587Y-2.5278
X5.9685Y-1.8335
X5.9707Y-3.5773
X6.0088Y-3.7087
X6.0248Y-2.7114
X6.0251Y-2.0207
X6.0254Y-3.5207
X6.0255Y-4.2018
X6.0457Y-4.2398
X6.0646Y-2.0102
X6.16Y-3.4061
X6.1654Y-1.6673
X6.2071Y-4.1157
X6.2283Y-1.748
X6.2323Y-1.5531
X6.2538Y-2.0836
X6.4151Y-1.8774
X6.4239Y-2.1983
X6.4243Y-1.9669
X6.435Y-1.4232
X6.4497Y-2.6686
X6.4787Y-1.889
X6.479Y-3.3891
X6.4801Y-2.4662
X6.4973Y-4.0606
X6.5097Y-1.9669
X6.5324Y-2.5459
X6.7274Y-1.6383
X6.7443Y-1.7569
X6.7534Y-3.3101
X6.7736Y-2.6426
X6.7736Y-1.8867
X6.7753Y-3.3938
X6.7896Y-1.7606
X6.7919Y-4.1496
X6.8045Y-2.6695
X6.8216Y-1.9546
X6.8664Y-2.5521
X6.8944Y-2.6537
X6.9005Y-2.713
X6.9111Y-3.7063
X6.9185Y-2.9591
X6.9315Y-3.4162
X6.9465Y-2.8765
X6.9928Y-2.5861
X6.993Y-2.2364
X7.0382Y-2.6295
X7.0508Y-2.7166
X7.056Y-2.2283
X7.063Y-2.2769
X7.1855Y-3.9052
X7.2011Y-1.5853
X7.2159Y-3.3213
X7.2243Y-2.3957
X7.226Y-1.6457
X7.226Y-2.3268
X7.226Y-3.1514
X7.2355Y-2.2873
X7.273Y-1.0521
X7.5219Y-1.6116
X7.5261Y-3.8268
X7.5274Y-2.3957
X7.5589Y-3.105
X7.5589Y-3.1457
X7.564Y-2.3558
X7.763Y-2.1051
X7.7835Y-2.3698
X7.8085Y-2.4582
X7.8201Y-2.109
X7.8223Y-2.0614
X7.8233Y-1.4843
X7.833Y-1.435
X7.8716Y-1.4176
X7.9376Y-2.2234
X7.9468Y-0.9192
X7.9518Y-2.9577
X7.9537Y-1.4542
X7.9585Y-3.6784
X7.9648Y-1.4071
X7.972Y-2.1823
X8.2733Y-1.426
X8.2736Y-3.6713
X8.2739Y-2.1706
X8.2748Y-2.9826
X8.2768Y-1.3598
X8.2934Y-2.9275
X8.312Y-3.7045
X8.3329Y-2.7923
X8.3516Y-1.5547
X8.3879Y-1.91
X8.4066Y-1.3197
X8.4102Y-2.0723
X8.4132Y-1.4052
X8.4314Y-1.5907
X8.4578Y-2.0723
X8.4578Y-2.1301
X8.4967Y-2.1913
X8.5037Y-2.0114
X8.5534Y-1.4474
X8.5859Y-3.214
X8.5934Y-1.456
X8.6031Y-1.888
X8.6102Y-2.9798
X8.6174Y-2.0438
X8.6234Y-1.4827
X8.624Y-1.2816
X8.6557Y-2.3503
X8.6657Y-3.9945
X8.6992Y-2.2702
X8.7011Y-1.6351
X8.7248Y-1.5636
X8.7253Y-2.3967
X8.7265Y-3.1143
X8.7265Y-4.6143
X8.7292Y-3.8611
X8.7402Y-3.7275
X8.7541Y-1.689
X8.767Y-1.4711
X8.9612Y-2.2013
X8.9778Y-2.4632
X8.9868Y-2.2737
X9.0217Y-2.3618
X9.0221Y-2.2211
X9.0252Y-3.0768
X9.0257Y-3.8792
X9.0387Y-4.712
X9.0474Y-1.6479
X9.0524Y-1.5869
X9.0524Y-4.6406
X9.0803Y-3.942
X9.0868Y-1.6585
X9.1334Y-2.2211
X9.2406Y-1.5849
X9.245Y-1.1637
X9.2545Y-4.6639
X9.3628Y-3.7942
X9.3672Y-1.628
X9.3811Y-1.8006
X9.3891Y-2.4632
X9.4575Y-3.206
X9.4694Y-1.7126
X9.4711Y-2.4617
X9.4753Y-3.9852
X9.7386Y-2.3723
X9.7448Y-1.6013
X9.7594Y-3.8723
X9.7648Y-3.2772
X9.7733Y-3.9484
X9.7733Y-4.6354
X9.7741Y-2.4505
X9.7757Y-1.7352
X9.8054Y-3.2881
X9.8166Y-3.0791
X9.8301Y-1.7316
X9.9343Y-1.6998
X10.2283Y-4.7796
X10.4966Y-4.8635
X10.5259Y-4.811
T2
X6.3262Y-1.37
X6.3262Y-1.47
X6.3262Y-1.57
X6.3262Y-1.67
X6.3262Y-1.77
X6.3262Y-1.87
X6.3262Y-1.97
X6.3262Y-2.07
X6.3262Y-2.17
X6.3262Y-2.27
X6.3262Y-2.37
X6.3262Y-2.47
X6.9254Y-1.37
X6.9254Y-1.47
X6.9254Y-1.57
X6.9254Y-1.67
X6.9254Y-1.77
X6.9254Y-1.87
X6.9254Y-1.97
X6.9254Y-2.07
X6.9254Y-2.17
X6.9254Y-2.27
X6.9254Y-2.37
X6.9254Y-2.47
T3
X9.472Y-1.8287
X9.7791Y-1.8287
X10.2217Y-4.2382
X10.5287Y-4.2382
X7.2213Y-3.2634
X7.5283Y-3.2634
X7.2213Y-2.513
X7.5283Y-2.513
X9.4724Y-1.9075
X9.7795Y-1.9075
X4.9724Y-2.7374
X5.2795Y-2.7374
X5.722Y-3.6378
X6.0291Y-3.6378
X6.4713Y-2.0157
X6.7783Y-2.0157
X7.2213Y-1.8189
X7.5283Y-1.8189
X8.722Y-3.2634
X9.0291Y-3.2634
X8.722Y-4.013
X9.0291Y-4.013
X9.3035Y-1.9646
X9.3035Y-2.2717
X8.722Y-1.8169
X9.0291Y-1.8169
X8.722Y-1.7382
X9.0291Y-1.7382
X5.722Y-2.1142
X6.0291Y-2.1142
X7.9709Y-3.0752
X8.278Y-3.0752
X5.722Y-2.1929
X6.0291Y-2.1929
X7.9709Y-1.6299
X8.278Y-1.6299
X9.4717Y-2.6031
X9.7787Y-2.6031
X8.722Y-2.513
X9.0291Y-2.513
X6.4709Y-2.7906
X6.778Y-2.7906
X9.4717Y-4.1031
X9.7787Y-4.1031
X9.4717Y-3.3531
X9.7787Y-3.3531
X7.2213Y-1.7402
X7.5283Y-1.7402
X6.4713Y-2.0945
X6.7783Y-2.0945
X6.4713Y-3.5406
X6.7783Y-3.5406
X9.1976Y-1.9646
X9.1976Y-2.2717
X7.9709Y-1.5512
X8.278Y-1.5512
X7.9709Y-2.3256
X8.278Y-2.3256
X5.722Y-2.8878
X6.0291Y-2.8878
X5.5594Y-1.9177
X5.5598Y-1.9177
X5.5598Y-1.9177
X5.5598Y-1.9965
X5.5598Y-2.0752
X5.5598Y-2.0752
X5.5602Y-1.9969
X5.5602Y-2.0756
T4
X8.6748Y-3.4846
X8.8756Y-3.4059
X9.0764Y-3.4846
X9.4248Y-2.0744
X9.6256Y-1.9957
X9.8264Y-2.0744
X10.1748Y-4.4
X10.3756Y-4.3213
X10.5764Y-4.4
X6.4244Y-3.0118
X6.6252Y-2.9331
X6.826Y-3.0118
X7.9236Y-3.2969
X8.1244Y-3.2181
X8.3252Y-3.2969
X8.6752Y-1.9843
X8.876Y-1.9055
X9.0768Y-1.9843
X7.174Y-3.4843
X7.3748Y-3.4055
X7.5756Y-3.4843
X7.9244Y-1.7976
X8.1252Y-1.7189
X8.326Y-1.7976
X7.9242Y-1.0463
X8.125Y-0.9675
X8.3258Y-1.0463
X5.6742Y-1.6093
X5.875Y-1.5305
X6.0758Y-1.6093
X6.4244Y-3.7622
X6.6252Y-3.6835
X6.826Y-3.7622
X7.1744Y-1.9846
X7.3752Y-1.9059
X7.576Y-1.9846
X5.6744Y-3.1094
X5.8752Y-3.0307
X6.076Y-3.1094
X9.4244Y-4.3244
X9.6252Y-4.2457
X9.826Y-4.3244
X5.6748Y-3.8594
X5.8756Y-3.7807
X6.0764Y-3.8594
X5.674Y-2.3591
X5.8748Y-2.2803
X6.0756Y-2.3591
X6.4242Y-1.5118
X6.625Y-1.4331
X6.8258Y-1.5118
X9.4248Y-1.3244
X9.6256Y-1.2457
X9.8264Y-1.3244
X8.6748Y-4.2343
X8.8756Y-4.1555
X9.0764Y-4.2343
X8.674Y-2.7346
X8.8748Y-2.6559
X9.0756Y-2.7346
X4.9248Y-2.8996
X5.1256Y-2.8209
X5.3264Y-2.8996
X6.4248Y-2.2622
X6.6256Y-2.1835
X6.8264Y-2.2622
X9.424Y-2.8252
X9.6248Y-2.7465
X9.8256Y-2.8252
X7.1752Y-1.2343
X7.376Y-1.1555
X7.5768Y-1.2343
X9.4248Y-3.5748
X9.6256Y-3.4961
X9.8264Y-3.5748
X7.1748Y-2.7346
X7.3756Y-2.6559
X7.5764Y-2.7346
X8.6742Y-1.2343
X8.875Y-1.1555
X9.0758Y-1.2343
X7.924Y-2.5465
X8.1248Y-2.4677
X8.3256Y-2.5465
T5
X7.0551Y-1.6703
X7.0551Y-1.9262
T6
X9.4756Y-3.6283
X9.5256Y-3.5283
X9.5256Y-3.5512
X9.5256Y-3.5709
X9.7256Y-3.5283
X9.7256Y-3.5512
X9.7256Y-3.5709
X9.7756Y-3.6283
X7.2256Y-2.7882
X7.2756Y-2.6882
X7.2756Y-2.711
X7.2756Y-2.7307
X7.4756Y-2.6882
X7.4756Y-2.711
X7.4756Y-2.7307
X7.5256Y-2.7882
X8.725Y-1.2878
X8.775Y-1.1878
X8.775Y-1.2106
X8.775Y-1.2303
X8.975Y-1.1878
X8.975Y-1.2106
X8.975Y-1.2303
X9.025Y-1.2878
X7.9748Y-2.6
X8.0248Y-2.5
X8.0248Y-2.5228
X8.0248Y-2.5425
X8.2248Y-2.5
X8.2248Y-2.5228
X8.2248Y-2.5425
X8.2748Y-2.6
X8.7256Y-3.5382
X8.7756Y-3.4382
X8.7756Y-3.461
X8.7756Y-3.4807
X8.9756Y-3.4382
X8.9756Y-3.461
X8.9756Y-3.4807
X9.0256Y-3.5382
X9.4756Y-2.128
X9.5256Y-2.028
X9.5256Y-2.0508
X9.5256Y-2.0705
X9.7256Y-2.028
X9.7256Y-2.0508
X9.7256Y-2.0705
X9.7756Y-2.128
X10.2256Y-4.4535
X10.2756Y-4.3535
X10.2756Y-4.3764
X10.2756Y-4.3961
X10.4756Y-4.3535
X10.4756Y-4.3764
X10.4756Y-4.3961
X10.5256Y-4.4535
X6.4752Y-3.0654
X6.5252Y-2.9654
X6.5252Y-2.9882
X6.5252Y-3.0079
X6.7252Y-2.9654
X6.7252Y-2.9882
X6.7252Y-3.0079
X6.7752Y-3.0654
X7.9744Y-3.3504
X8.0244Y-3.2504
X8.0244Y-3.2732
X8.0244Y-3.2929
X8.2244Y-3.2504
X8.2244Y-3.2732
X8.2244Y-3.2929
X8.2744Y-3.3504
X8.726Y-2.0378
X8.776Y-1.9378
X8.776Y-1.9606
X8.776Y-1.9803
X8.976Y-1.9378
X8.976Y-1.9606
X8.976Y-1.9803
X9.026Y-2.0378
X7.2248Y-3.5378
X7.2748Y-3.4378
X7.2748Y-3.4606
X7.2748Y-3.4803
X7.4748Y-3.4378
X7.4748Y-3.4606
X7.4748Y-3.4803
X7.5248Y-3.5378
X7.9752Y-1.8512
X8.0252Y-1.7512
X8.0252Y-1.774
X8.0252Y-1.7937
X8.2252Y-1.7512
X8.2252Y-1.774
X8.2252Y-1.7937
X8.2752Y-1.8512
X7.975Y-1.0998
X8.025Y-0.9998
X8.025Y-1.0226
X8.025Y-1.0423
X8.225Y-0.9998
X8.225Y-1.0226
X8.225Y-1.0423
X8.275Y-1.0998
X5.725Y-1.6628
X5.775Y-1.5628
X5.775Y-1.5856
X5.775Y-1.6053
X5.975Y-1.5628
X5.975Y-1.5856
X5.975Y-1.6053
X6.025Y-1.6628
X6.4752Y-3.8157
X6.5252Y-3.7157
X6.5252Y-3.7386
X6.5252Y-3.7583
X6.7252Y-3.7157
X6.7252Y-3.7386
X6.7252Y-3.7583
X6.7752Y-3.8157
X7.2252Y-2.0382
X7.2752Y-1.9382
X7.2752Y-1.961
X7.2752Y-1.9807
X7.4752Y-1.9382
X7.4752Y-1.961
X7.4752Y-1.9807
X7.5252Y-2.0382
X5.7252Y-3.163
X5.7752Y-3.063
X5.7752Y-3.0858
X5.7752Y-3.1055
X5.9752Y-3.063
X5.9752Y-3.0858
X5.9752Y-3.1055
X6.0252Y-3.163
X9.4752Y-4.378
X9.5252Y-4.278
X9.5252Y-4.3008
X9.5252Y-4.3205
X9.7252Y-4.278
X9.7252Y-4.3008
X9.7252Y-4.3205
X9.7752Y-4.378
X5.7256Y-3.913
X5.7756Y-3.813
X5.7756Y-3.8358
X5.7756Y-3.8555
X5.9756Y-3.813
X5.9756Y-3.8358
X5.9756Y-3.8555
X6.0256Y-3.913
X5.7248Y-2.4126
X5.7748Y-2.3126
X5.7748Y-2.3354
X5.7748Y-2.3551
X5.9748Y-2.3126
X5.9748Y-2.3354
X5.9748Y-2.3551
X6.0248Y-2.4126
X6.475Y-1.5654
X6.525Y-1.4654
X6.525Y-1.4882
X6.525Y-1.5079
X6.725Y-1.4654
X6.725Y-1.4882
X6.725Y-1.5079
X6.775Y-1.5654
X9.4756Y-1.378
X9.5256Y-1.278
X9.5256Y-1.3008
X9.5256Y-1.3205
X9.7256Y-1.278
X9.7256Y-1.3008
X9.7256Y-1.3205
X9.7756Y-1.378
X8.7256Y-4.2878
X8.7756Y-4.1878
X8.7756Y-4.2106
X8.7756Y-4.2303
X8.9756Y-4.1878
X8.9756Y-4.2106
X8.9756Y-4.2303
X9.0256Y-4.2878
X8.7248Y-2.7882
X8.7748Y-2.6882
X8.7748Y-2.711
X8.7748Y-2.7307
X8.9748Y-2.6882
X8.9748Y-2.711
X8.9748Y-2.7307
X9.0248Y-2.7882
X4.9756Y-2.9531
X5.0256Y-2.8531
X5.0256Y-2.876
X5.0256Y-2.8957
X5.2256Y-2.8531
X5.2256Y-2.876
X5.2256Y-2.8957
X5.2756Y-2.9531
X6.4756Y-2.3157
X6.5256Y-2.2157
X6.5256Y-2.2386
X6.5256Y-2.2583
X6.7256Y-2.2157
X6.7256Y-2.2386
X6.7256Y-2.2583
X6.7756Y-2.3157
X9.4748Y-2.8787
X9.5248Y-2.7787
X9.5248Y-2.8016
X9.5248Y-2.8213
X9.7248Y-2.7787
X9.7248Y-2.8016
X9.7248Y-2.8213
X9.7748Y-2.8787
X7.226Y-1.2878
X7.276Y-1.1878
X7.276Y-1.2106
X7.276Y-1.2303
X7.476Y-1.1878
X7.476Y-1.2106
X7.476Y-1.2303
X7.526Y-1.2878
T3
X9.1673Y-1.4508G85X9.1673Y-1.5295
G05
X9.1683Y-1.1752G85X9.1683Y-1.1949
G05
X9.1683Y-1.2933G85X9.1683Y-1.313
G05
X9.3327Y-1.1752G85X9.3327Y-1.1949
G05
X9.3327Y-1.2933G85X9.3327Y-1.313
G05
X9.3327Y-1.4508G85X9.3327Y-1.5295
G05
T0
M30
